<?xml version="1.0" standalone="no"?>
<!DOCTYPE svg PUBLIC "-//W3C//DTD SVG 1.1//EN" "http://www.w3.org/Graphics/SVG/1.1/DTD/svg11.dtd" >
<svg>
<metadata>
Created by FontForge 20090622 at Mon Aug 13 05:41:48 2018
 By deploy user
Copyright (c) 1988, 1990 Adobe Systems Incorporated.  All Rights Reserved.Helvetica is a registered trademark of Linotype AG and/or its subsidiaries.
</metadata>
<defs>
<font id="HelveticaNeueRegular" horiz-adv-x="500" >
  <font-face 
    font-family="HelveticaNeue"
    font-weight="5"
    font-stretch="normal"
    units-per-em="1000"
    panose-1="0 0 0 0 0 0 0 0 0 0"
    ascent="800"
    descent="-200"
    x-height="514"
    cap-height="714"
    bbox="-166 -233 1016 931"
    underline-thickness="50"
    underline-position="-75"
    unicode-range="U+0020-U+F002"
  />
<missing-glyph horiz-adv-x="802" 
d="M50 0v802h702v-802h-702zM702 50v702h-602v-702h602z" />
    <glyph glyph-name=".notdef" horiz-adv-x="802" 
d="M50 0v802h702v-802h-702zM702 50v702h-602v-702h602z" />
    <glyph glyph-name=".null" horiz-adv-x="0" 
 />
    <glyph glyph-name="nonmarkingreturn" horiz-adv-x="278" 
 />
    <glyph glyph-name="space" unicode=" " horiz-adv-x="278" 
 />
    <glyph glyph-name="exclam" unicode="!" horiz-adv-x="185" 
d="M83 0v98h20v-98h-20zM83 182v532h20v-532h-20z" />
    <glyph glyph-name="quotedbl" unicode="&#x22;" horiz-adv-x="278" 
d="M93 489h-20v225h20v-225zM205 489h-20v225h20v-225z" />
    <glyph glyph-name="numbersign" unicode="#" horiz-adv-x="556" 
d="M245 680l-31 -234h171l31 234h20l-31 -234h116v-20h-121l-24 -177h117v-20h-121l-31 -229h-20l31 229h-172l-31 -229h-20l31 229h-125v20h130l24 177h-126v20h131l31 234h20zM185 249h171l24 177h-171z" />
    <glyph glyph-name="dollar" unicode="$" horiz-adv-x="556" 
d="M265 711q-88 0 -153 -39t-65 -125q0 -80 53 -110.5t165 -55.5v330zM26 237q0 -118 64 -175.5t175 -57.5v356q-84 19 -128 34.5t-77 51.5t-33 101q0 96 70 140t168 44v43h20v-44q107 0 172.5 -53t65.5 -163h-20q0 101 -59.5 148.5t-158.5 47.5v-334l8 -2
q104 -27 143 -40.5t70 -51t31 -107.5q0 -94 -75 -143t-177 -49v-88h-20v89q-118 0 -188.5 64t-70.5 189h20zM285 3q95 0 163.5 43.5t68.5 129.5q0 89 -55.5 120t-176.5 59v-352z" />
    <glyph glyph-name="percent" unicode="%" horiz-adv-x="685" 
d="M509 8q64 0 99.5 42.5t35.5 106.5q0 71 -33.5 112t-101.5 41q-66 0 -99 -41.5t-33 -111.5q0 -65 33.5 -107t98.5 -42zM173 692q74 0 114.5 -47.5t40.5 -124.5q0 -72 -41.5 -121t-113.5 -49q-74 0 -113 48.5t-39 120.5q0 78 40 125.5t112 47.5zM173 370q64 0 99.5 42.5
t35.5 106.5q0 71 -33.5 112t-101.5 41q-66 0 -99 -41.5t-33 -111.5q0 -65 33.5 -107t98.5 -42zM509 330q74 0 114.5 -47.5t40.5 -124.5q0 -72 -41.5 -121t-113.5 -49q-74 0 -113 48.5t-39 120.5q0 78 40 125.5t112 47.5zM564 714h23l-476 -748h-23z" />
    <glyph glyph-name="ampersand" unicode="&#x26;" horiz-adv-x="574" 
d="M253 404q73 50 111 86.5t38 90.5q0 52 -36 82.5t-89 30.5q-54 0 -90.5 -30t-36.5 -81q0 -46 103 -179zM248 378q-93 -59 -138.5 -102t-45.5 -116t54.5 -115t129.5 -42q69 0 117.5 34t78.5 95zM572 0h-26l-89 113q-32 -59 -84.5 -94.5t-124.5 -35.5q-80 0 -142 49t-62 128
q0 91 60.5 140.5t131.5 93.5l-70 95t-36 92q0 65 43.5 99t102.5 34q62 0 104 -36t42 -97q0 -60 -33.5 -92.5t-123.5 -99.5l188 -238q10 23 17 55t7 71h20q0 -76 -30 -144z" />
    <glyph glyph-name="quotesingle" unicode="'" horiz-adv-x="167" 
d="M74 714h20v-225h-20v225z" />
    <glyph glyph-name="parenleft" unicode="(" horiz-adv-x="222" 
d="M204 731q-56 -105 -86 -218t-30 -231q0 -246 117 -459h-20q-61 118 -89 225t-28 234q0 117 29.5 230t86.5 219h20z" />
    <glyph glyph-name="parenright" unicode=")" horiz-adv-x="222" 
d="M18 -177q56 105 86 218t30 231q0 246 -117 459h20q61 -118 89 -225t28 -234q0 -117 -29.5 -230t-86.5 -219h-20z" />
    <glyph glyph-name="asterisk" unicode="*" horiz-adv-x="352" 
d="M184 714v-140l132 43l4 -19l-130 -43l83 -109l-16 -12l-83 108l-84 -104l-16 13l88 104l-130 43l6 19l126 -43v140h20z" />
    <glyph glyph-name="plus" unicode="+" horiz-adv-x="600" 
d="M290 506h20v-243h242v-20h-242v-243h-20v243h-242v20h242v243z" />
    <glyph glyph-name="comma" unicode="," horiz-adv-x="278" 
d="M149 98v-98q0 -48 -9.5 -75t-34.5 -44v20q24 24 24 99v98h20z" />
    <glyph glyph-name="hyphen" unicode="-" horiz-adv-x="333" 
d="M79 278h175v-20h-175v20z" />
    <glyph glyph-name="period" unicode="." horiz-adv-x="278" 
d="M149 0h-20v98h20v-98z" />
    <glyph glyph-name="slash" unicode="/" horiz-adv-x="333" 
d="M-7 -17l327 748h20l-327 -748h-20z" />
    <glyph glyph-name="zero" unicode="0" horiz-adv-x="556" 
d="M278 672q-127 0 -182 -98t-55 -234q0 -137 54.5 -234.5t182.5 -97.5q127 0 182 98t55 234q0 137 -54.5 234.5t-182.5 97.5zM278 -12q-134 0 -195.5 103t-61.5 249q0 148 61 250t196 102q134 0 195.5 -103t61.5 -249q0 -148 -61 -250t-196 -102z" />
    <glyph glyph-name="one" unicode="1" horiz-adv-x="556" 
d="M298 654q-31 -42 -81 -73.5t-102 -46.5v20q60 20 98 47.5t83 78.5h22v-680h-20v654z" />
    <glyph glyph-name="two" unicode="2" horiz-adv-x="556" 
d="M513 20v-20h-458q0 54 28 95t71 75.5t142 103t139 124t40 111.5q0 77 -52.5 120t-136.5 43q-103 0 -151 -57.5t-48 -157.5h-20q0 113 56 174t163 61q92 0 150.5 -47t58.5 -136q0 -59 -39.5 -117t-137.5 -126.5t-139.5 -100t-70 -67.5t-33.5 -78h438z" />
    <glyph glyph-name="three" unicode="3" horiz-adv-x="556" 
d="M59 469q0 109 61 166t171 57q90 0 151.5 -41t61.5 -126q0 -69 -40.5 -110.5t-105.5 -47.5q67 -8 113 -52.5t46 -126.5q0 -91 -67 -145.5t-163 -54.5q-116 0 -181.5 63.5t-65.5 178.5h20q0 -107 59.5 -164.5t167.5 -57.5q87 0 148.5 48t61.5 132q0 83 -53.5 125.5
t-141.5 42.5h-49v20h49q77 0 129.5 35.5t52.5 113.5q0 75 -56.5 111t-136.5 36q-100 0 -156 -51t-56 -152h-20z" />
    <glyph glyph-name="four" unicode="4" horiz-adv-x="556" 
d="M379 652l-325 -455h325v455zM34 177v24l340 479h25v-483h123v-20h-123v-177h-20v177h-345z" />
    <glyph glyph-name="five" unicode="5" horiz-adv-x="556" 
d="M147 660l-62 -291q29 45 78 68.5t110 23.5q105 0 170 -66t65 -169q0 -107 -64.5 -172.5t-170.5 -65.5q-108 0 -172 61t-64 169h20q0 -99 57.5 -154.5t158.5 -55.5q99 0 157 59t58 159q0 95 -59 155t-156 60q-62 0 -112 -26.5t-78 -77.5h-25l73 343h349v-20h-333z" />
    <glyph glyph-name="six" unicode="6" horiz-adv-x="556" 
d="M282 438q-89 0 -152 -63t-63 -152t63 -152t152 -63t152 63t63 152t-63 152t-152 63zM485 520q-18 83 -72 117.5t-119 34.5q-94 0 -146.5 -59.5t-71 -144.5t-18.5 -181q17 73 80 122t144 49q93 0 164 -66.5t71 -168.5q0 -100 -69.5 -167.5t-165.5 -67.5q-66 0 -117.5 31
t-79.5 74t-37 98t-9 130q0 152 59.5 261.5t196.5 109.5q86 0 142.5 -48.5t67.5 -123.5h-20z" />
    <glyph glyph-name="seven" unicode="7" horiz-adv-x="556" 
d="M61 660v20h434v-27q-150 -150 -228.5 -305t-78.5 -348h-20q0 191 78.5 352t226.5 308h-412z" />
    <glyph glyph-name="eight" unicode="8" horiz-adv-x="556" 
d="M278 362q-101 0 -164 -40t-63 -132t64.5 -137t162.5 -45q99 0 163 44.5t64 137.5q0 91 -63.5 131.5t-163.5 40.5zM525 190q0 -101 -69.5 -151.5t-177.5 -50.5q-107 0 -177 51t-70 151q0 78 46.5 126.5t127.5 56.5q-61 9 -100.5 49t-39.5 98q0 87 58.5 129.5t154.5 42.5
q95 0 154 -42.5t59 -129.5q0 -58 -39.5 -97.5t-100.5 -47.5q80 -9 127 -58t47 -127zM278 672q-84 0 -138.5 -35.5t-54.5 -116.5q0 -68 58.5 -103t134.5 -35q77 0 135 35t58 103q0 80 -55 116t-138 36z" />
    <glyph glyph-name="nine" unicode="9" horiz-adv-x="556" 
d="M71 160q18 -83 72 -117.5t119 -34.5q94 0 146.5 59.5t71 144.5t18.5 181q-17 -73 -80 -122t-144 -49q-93 0 -164 66.5t-71 168.5q0 100 69.5 167.5t165.5 67.5q66 0 117.5 -31t79.5 -74t37.5 -97.5t9.5 -130.5q0 -152 -60 -261.5t-197 -109.5q-86 0 -142.5 48.5
t-67.5 123.5h20zM274 672q-89 0 -152 -63t-63 -152t63 -152t152 -63t152 63t63 152t-63 152t-152 63z" />
    <glyph glyph-name="colon" unicode=":" horiz-adv-x="278" 
d="M129 0v98h20v-98h-20zM129 416v98h20v-98h-20z" />
    <glyph glyph-name="semicolon" unicode=";" horiz-adv-x="278" 
d="M149 0q0 -48 -9.5 -75t-34.5 -44v20q24 24 24 99v98h20v-98zM129 416v98h20v-98h-20z" />
    <glyph glyph-name="less" unicode="&#x3c;" horiz-adv-x="600" 
d="M554 -8l-508 249v24l508 249v-21l-490 -240l490 -240v-21z" />
    <glyph glyph-name="equal" unicode="=" horiz-adv-x="600" 
d="M48 340v20h504v-20h-504zM48 146v20h504v-20h-504z" />
    <glyph glyph-name="greater" unicode="&#x3e;" horiz-adv-x="600" 
d="M536 253l-490 240v21l508 -249v-24l-508 -249v21z" />
    <glyph glyph-name="question" unicode="?" 
d="M35 493q0 108 56.5 173t160.5 65q86 0 141.5 -44t55.5 -122q0 -65 -26 -102t-72 -77q-57 -55 -78 -95.5t-21 -108.5h-20q0 68 20 112t62.5 85l70.5 68q44 54 44 118q0 69 -49 107.5t-128 38.5q-97 0 -147 -58.5t-50 -159.5h-20zM232 0v98h20v-98h-20z" />
    <glyph glyph-name="at" unicode="@" horiz-adv-x="800" 
d="M559 456q-13 48 -49.5 69t-82.5 21q-89 0 -151 -88.5t-62 -180.5q0 -54 33.5 -89.5t86.5 -35.5q47 0 88 27t66 93zM594 547h21l-111 -288q-7 -19 -12 -37.5t-5 -30.5q0 -39 42 -39q66 0 130 77.5t64 181.5q0 124 -85.5 202.5t-218.5 78.5q-145 0 -243.5 -98.5
t-98.5 -240.5q0 -164 98 -254.5t244 -90.5q88 0 164.5 43.5t125.5 114.5h23q-49 -80 -134.5 -129t-178.5 -49q-148 0 -255 93t-107 272q0 154 105.5 256.5t256.5 102.5q138 0 231 -82.5t93 -218.5q0 -111 -69.5 -195t-146.5 -84q-27 0 -43.5 14.5t-16.5 37.5q0 7 1 11
q-26 -34 -62.5 -48.5t-75.5 -14.5q-58 0 -97 42t-39 103q0 102 68.5 195.5t168.5 93.5q48 0 86 -23t51 -62z" />
    <glyph glyph-name="A" unicode="A" horiz-adv-x="575" 
d="M462 255l-170 439l-178 -439h348zM106 235l-95 -235h-23l290 714h26l282 -714h-22l-94 235h-364z" />
    <glyph glyph-name="B" unicode="B" horiz-adv-x="611" 
d="M67 20h284q91 0 148.5 44t57.5 129q0 87 -58.5 128t-144.5 41h-287v-342zM47 714h307q88 0 144.5 -46t56.5 -132q0 -66 -43.5 -114.5t-107.5 -48.5q72 -2 122.5 -50.5t50.5 -128.5q0 -94 -64.5 -144t-170.5 -50h-295v714zM67 382h287q76 0 128.5 40t52.5 114
q0 77 -50.5 117.5t-130.5 40.5h-287v-312z" />
    <glyph glyph-name="C" unicode="C" horiz-adv-x="685" 
d="M662 280q-19 -135 -100.5 -216t-213.5 -81q-143 0 -233 103t-90 265q0 151 83.5 265.5t252.5 114.5q129 0 207 -76t78 -155h-20q-7 83 -80 147t-185 64q-160 0 -238 -112.5t-78 -247.5q0 -144 82 -246t221 -102q124 0 200.5 76.5t93.5 200.5h20z" />
    <glyph glyph-name="D" unicode="D" horiz-adv-x="648" 
d="M54 714h250q126 0 215 -82.5t89 -274.5q0 -179 -96.5 -268t-238.5 -89h-219v714zM74 20h204q135 0 222.5 86t87.5 251q0 183 -82.5 260t-206.5 77h-225v-674z" />
    <glyph glyph-name="E" unicode="E" horiz-adv-x="537" 
d="M74 20h458v-20h-478v714h474v-20h-454v-312h427v-20h-427v-342z" />
    <glyph glyph-name="F" unicode="F" horiz-adv-x="481" 
d="M74 382h380v-20h-380v-362h-20v714h440v-20h-420v-312z" />
    <glyph glyph-name="G" unicode="G" horiz-adv-x="722" 
d="M377 314v20h297v-335h-20v178q-29 -90 -106 -142t-181 -52q-160 0 -247.5 105.5t-87.5 268.5q0 162 90.5 268t244.5 106q119 0 199 -65t97 -175h-20q-19 101 -92.5 160.5t-183.5 59.5q-144 0 -229.5 -101.5t-85.5 -252.5q0 -153 83 -253.5t235 -100.5q120 0 202 78
t82 196v37h-277z" />
    <glyph glyph-name="H" unicode="H" horiz-adv-x="648" 
d="M74 362v-362h-20v714h20v-332h500v332h20v-714h-20v362h-500z" />
    <glyph glyph-name="I" unicode="I" horiz-adv-x="128" 
d="M54 714h20v-714h-20v714z" />
    <glyph glyph-name="J" unicode="J" horiz-adv-x="463" 
d="M384 714h20v-528q0 -95 -46.5 -149t-149.5 -54q-96 0 -143 53.5t-47 141.5v43h20v-43q0 -175 170 -175q90 0 133 44t43 154v513z" />
    <glyph glyph-name="K" unicode="K" horiz-adv-x="593" 
d="M74 253v-253h-20v714h20v-434l495 434h30l-345 -304l365 -410h-27l-354 398z" />
    <glyph glyph-name="L" unicode="L" horiz-adv-x="481" 
d="M491 20v-20h-437v714h20v-694h417z" />
    <glyph glyph-name="M" unicode="M" horiz-adv-x="780" 
d="M693 714h33v-714h-20v689l-305 -689h-22l-303 689l-2 -689h-20v714h33l302 -688z" />
    <glyph glyph-name="N" unicode="N" horiz-adv-x="648" 
d="M54 714h30l488 -689l2 689h20v-714h-30l-488 689l-2 -689h-20v714z" />
    <glyph glyph-name="O" unicode="O" horiz-adv-x="721" 
d="M361 3q142 0 225.5 98.5t83.5 255.5t-83.5 255.5t-225.5 98.5t-225.5 -98.5t-83.5 -255.5t83.5 -255.5t225.5 -98.5zM361 731q155 0 242 -107t87 -267t-87 -267t-242 -107t-242 107t-87 267t87 267t242 107z" />
    <glyph glyph-name="P" unicode="P" horiz-adv-x="574" 
d="M74 345h269q86 0 141.5 46.5t55.5 127.5q0 175 -197 175h-269v-349zM74 0h-20v714h289q103 0 160 -50t57 -145q0 -92 -62.5 -143t-164.5 -51h-259v-325z" />
    <glyph glyph-name="Q" unicode="Q" horiz-adv-x="721" 
d="M427 156l11 16l129 -89q49 47 76 117.5t27 156.5q0 157 -83.5 255.5t-225.5 98.5t-225.5 -98.5t-83.5 -255.5t83.5 -255.5t225.5 -98.5q58 0 105.5 17t86.5 50zM571 58q-41 -36 -93.5 -55.5t-116.5 -19.5q-155 0 -242 107t-87 267t87 267t242 107t242 -107t87 -267
q0 -87 -26.5 -160.5t-79.5 -125.5l115 -79l-10 -14z" />
    <glyph glyph-name="R" unicode="R" horiz-adv-x="611" 
d="M74 355h267q86 0 144.5 44.5t58.5 133.5q0 78 -46.5 119.5t-146.5 41.5h-277v-339zM74 0h-20v714h292q218 0 218 -183q0 -71 -39.5 -119.5t-113.5 -64.5q85 -13 113 -59.5t28 -140.5q0 -47 3.5 -89.5t13.5 -57.5h-22q-8 20 -11.5 62.5t-3.5 87.5q0 97 -37 141t-152 44
h-269v-335z" />
    <glyph glyph-name="S" unicode="S" horiz-adv-x="611" 
d="M531 514q0 103 -63 150t-169 47q-91 0 -157.5 -38.5t-66.5 -125.5q0 -100 64.5 -122.5t175 -50t149.5 -41t70 -51t31 -107.5q0 -94 -75 -143t-177 -49q-129 0 -204 62t-75 192h20q0 -122 68.5 -178t190.5 -56q95 0 163.5 43.5t68.5 129.5q0 93 -55.5 121t-174 56.5
t-189.5 56t-71 137.5q0 97 71.5 140.5t172.5 43.5q114 0 183 -52t69 -165h-20z" />
    <glyph glyph-name="T" unicode="T" 
d="M-17 694v20h534v-20h-257v-694h-20v694h-257z" />
    <glyph glyph-name="U" unicode="U" horiz-adv-x="632" 
d="M558 714h20v-448q0 -140 -67.5 -211.5t-194.5 -71.5q-262 0 -262 283v448h20v-448q0 -129 60 -196t182 -67t182 66.5t60 196.5v448z" />
    <glyph glyph-name="V" unicode="V" horiz-adv-x="538" 
d="M536 714h20l-272 -714h-22l-280 714h20l270 -688z" />
    <glyph glyph-name="W" unicode="W" horiz-adv-x="870" 
d="M860 714h20l-207 -714h-27l-210 689l-208 -689h-27l-211 714h21l202 -689l208 689h29l209 -689z" />
    <glyph glyph-name="X" unicode="X" horiz-adv-x="520" 
d="M510 714h25l-260 -347l272 -367h-25l-261 351l-263 -351h-25l275 367l-260 347h26l247 -331z" />
    <glyph glyph-name="Y" unicode="Y" horiz-adv-x="538" 
d="M544 714h24l-289 -413v-301h-20v301l-289 413h25l274 -392z" />
    <glyph glyph-name="Z" unicode="Z" 
d="M508 20v-20h-527v27l499 667h-471v20h491v-27l-499 -667h507z" />
    <glyph glyph-name="bracketleft" unicode="[" horiz-adv-x="222" 
d="M209 731v-20h-93v-868h93v-20h-113v908h113z" />
    <glyph glyph-name="backslash" unicode="\" horiz-adv-x="333" 
d="M320 -17l-327 748h20l327 -748h-20z" />
    <glyph glyph-name="bracketright" unicode="]" horiz-adv-x="222" 
d="M13 -177v20h93v868h-93v20h113v-908h-113z" />
    <glyph glyph-name="asciicircum" unicode="^" horiz-adv-x="600" 
d="M541 227h-20l-221 433l-221 -433h-20l231 453h20z" />
    <glyph glyph-name="underscore" unicode="_" 
d="M0 -125v50h500v-50h-500z" />
    <glyph glyph-name="grave" unicode="`" horiz-adv-x="130" 
d="M-38 731h29l125 -144h-15z" />
    <glyph glyph-name="a" unicode="a" horiz-adv-x="481" 
d="M400 302q-15 -20 -56.5 -30.5t-144.5 -10.5q-72 0 -114.5 -28.5t-42.5 -105.5q0 -50 36 -84.5t114 -34.5q96 0 152 59t56 140v95zM54 355q0 76 51.5 123.5t144.5 47.5q76 0 123 -34t47 -113v-327q0 -19 11.5 -26.5t29.5 -7.5h12q8 2 12 2v-20h-15q-43 0 -56.5 12.5
t-13.5 37.5v67q-18 -53 -74 -91t-132 -38q-78 0 -125 36t-47 103q0 86 50 120t127 34q117 0 159 14t42 69q0 63 -29 102.5t-121 39.5q-81 0 -128.5 -39.5t-47.5 -111.5h-20z" />
    <glyph glyph-name="b" unicode="b" horiz-adv-x="537" 
d="M283 8q95 0 147 71.5t52 176.5q0 101 -50 175.5t-149 74.5q-95 0 -151.5 -66t-56.5 -184q0 -105 56 -176.5t152 -71.5zM75 370q20 72 74 114t134 42q102 0 160.5 -78t58.5 -192q0 -119 -59 -193.5t-160 -74.5q-77 0 -131.5 42.5t-74.5 113.5l-2 -144h-20v714h20v-344z
" />
    <glyph glyph-name="c" unicode="c" 
d="M469 175q-8 -87 -64.5 -137t-145.5 -50q-106 0 -167 73.5t-61 184.5q0 120 61 200t179 80q75 0 130 -44.5t64 -123.5h-20q-11 72 -59.5 110t-114.5 38q-113 0 -166.5 -77.5t-53.5 -182.5q0 -100 55 -169t153 -69q78 0 134 46t56 121h20z" />
    <glyph glyph-name="d" unicode="d" horiz-adv-x="537" 
d="M247 506q-98 0 -148.5 -75t-50.5 -175q0 -105 51.5 -176.5t147.5 -71.5q95 0 151.5 72t56.5 176q0 118 -56 184t-152 66zM455 714h20v-714h-20v144q-22 -70 -76.5 -113t-131.5 -43q-100 0 -159.5 75t-59.5 193q0 114 58.5 192t160.5 78q80 0 133.5 -42t72.5 -114z" />
    <glyph glyph-name="e" unicode="e" 
d="M455 273q0 101 -53 167t-150 66q-86 0 -146.5 -64t-60.5 -169h410zM45 253q0 -112 49 -178.5t154 -66.5q81 0 134.5 44t66.5 126h20q-10 -87 -70.5 -138.5t-148.5 -51.5q-114 0 -169.5 73.5t-55.5 195.5q0 123 66 196t159 73q112 0 168.5 -78.5t56.5 -194.5h-430z" />
    <glyph glyph-name="f" unicode="f" horiz-adv-x="204" 
d="M-1 494v20h88v114q0 55 27.5 70.5t73.5 15.5q15 0 24 -1.5t19 -2.5v-20q-25 4 -47 4q-46 0 -61.5 -16.5t-15.5 -56.5v-107h111v-20h-111v-494h-20v494h-88z" />
    <glyph glyph-name="g" unicode="g" horiz-adv-x="519" 
d="M249 506q-95 0 -148 -66.5t-53 -165.5q0 -100 50.5 -163t142.5 -63q95 0 149.5 64.5t54.5 161.5q0 95 -52 163.5t-144 68.5zM446 172q-17 -66 -75.5 -105t-128.5 -39q-102 0 -158 70.5t-56 175.5q0 109 58 180.5t163 71.5q72 0 126 -42t69 -107l2 137h20v-497
q0 -103 -55.5 -154.5t-158.5 -51.5q-86 0 -141 40t-55 122h20q0 -72 49 -107t126 -35q95 0 145 46t50 140v155z" />
    <glyph glyph-name="h" unicode="h" 
d="M55 714h20v-327q17 62 65 100.5t122 38.5q82 0 132.5 -48.5t50.5 -136.5v-341h-20v338q0 83 -46.5 125.5t-116.5 42.5q-89 0 -138 -61.5t-49 -153.5v-291h-20v714z" />
    <glyph glyph-name="i" unicode="i" horiz-adv-x="130" 
d="M75 0h-20v514h20v-514zM75 613h-20v101h20v-101z" />
    <glyph glyph-name="j" unicode="j" horiz-adv-x="130" 
d="M75 -75q0 -65 -28.5 -83.5t-95.5 -18.5v20q64 0 84 14t20 75v582h20v-589zM75 613h-20v101h20v-101z" />
    <glyph glyph-name="k" unicode="k" horiz-adv-x="444" 
d="M75 194v-194h-20v714h20v-495l355 295h29l-236 -196l253 -318h-27l-241 304z" />
    <glyph glyph-name="l" unicode="l" horiz-adv-x="130" 
d="M55 714h20v-714h-20v714z" />
    <glyph glyph-name="m" unicode="m" horiz-adv-x="778" 
d="M55 514h20v-127q16 60 61.5 99.5t104.5 39.5q61 0 101 -31t53 -89q17 54 61.5 87t103.5 33q88 0 125.5 -49t37.5 -139v-338h-20v338q0 83 -31.5 125.5t-111.5 42.5q-73 0 -117 -52.5t-44 -127.5v-326h-20v330q0 83 -29.5 129.5t-108.5 46.5q-74 0 -120 -63t-46 -152v-291
h-20v514z" />
    <glyph glyph-name="n" unicode="n" 
d="M55 514h20v-127q17 62 65 100.5t122 38.5q82 0 132.5 -48.5t50.5 -136.5v-341h-20v338q0 83 -46.5 125.5t-116.5 42.5q-89 0 -138 -61.5t-49 -153.5v-291h-20v514z" />
    <glyph glyph-name="o" unicode="o" horiz-adv-x="519" 
d="M260 526q108 0 169.5 -78.5t61.5 -190.5t-62 -190.5t-170 -78.5t-169.5 78t-61.5 191q0 112 61.5 190.5t170.5 78.5zM260 8q99 0 155 72.5t56 176.5q0 102 -56.5 175.5t-154.5 73.5q-99 0 -155.5 -73t-56.5 -176t56.5 -176t155.5 -73z" />
    <glyph glyph-name="p" unicode="p" horiz-adv-x="537" 
d="M482 258q0 105 -51.5 176.5t-147.5 71.5q-95 0 -151.5 -72t-56.5 -176q0 -118 56 -184t152 -66q98 0 148.5 75t50.5 175zM75 -177h-20v691h20v-144q22 70 76.5 113t131.5 43q100 0 159.5 -75t59.5 -193q0 -114 -58.5 -192t-160.5 -78q-80 0 -133.5 42t-72.5 114z" />
    <glyph glyph-name="q" unicode="q" horiz-adv-x="537" 
d="M455 514h20v-691h-20v321q-20 -72 -74 -114t-134 -42q-102 0 -160.5 78t-58.5 192q0 119 59 193.5t160 74.5q77 0 131.5 -42.5t74.5 -113.5zM247 506q-95 0 -147 -71.5t-52 -176.5q0 -101 50 -175.5t149 -74.5q95 0 151.5 66t56.5 184q0 105 -56 176.5t-152 71.5z" />
    <glyph glyph-name="r" unicode="r" horiz-adv-x="259" 
d="M75 0h-20v514h20v-127q17 63 66.5 101t137.5 38v-20q-100 0 -152 -61.5t-52 -153.5v-291z" />
    <glyph glyph-name="s" unicode="s" horiz-adv-x="463" 
d="M390 362q0 73 -44.5 108.5t-121.5 35.5q-73 0 -113.5 -30t-40.5 -79q0 -37 14 -58t38 -30t62 -19.5l107.5 -28.5t101 -48.5t31.5 -81.5q0 -72 -55 -107.5t-131 -35.5q-104 0 -156 45.5t-52 142.5h20q0 -85 48 -126.5t140 -41.5q65 0 115.5 30t50.5 91q0 60 -41 81.5
t-111 39t-94.5 25t-66 25.5t-41.5 97q0 50 43 89.5t131 39.5q89 0 137.5 -40t48.5 -124h-20z" />
    <glyph glyph-name="t" unicode="t" horiz-adv-x="241" 
d="M110 494v-394q0 -51 18.5 -65.5t50.5 -14.5q35 0 44 3v-20q-7 0 -22.5 -1.5t-26.5 -1.5q-40 0 -62 21.5t-22 74.5v398h-95v20h95v162h20v-162h116v-20h-116z" />
    <glyph glyph-name="u" unicode="u" 
d="M445 0h-20v127q-17 -62 -65 -100.5t-122 -38.5q-82 0 -132.5 48.5t-50.5 136.5v341h20v-338q0 -83 46.5 -125.5t116.5 -42.5q89 0 138 61.5t49 153.5v291h20v-514z" />
    <glyph glyph-name="v" unicode="v" horiz-adv-x="407" 
d="M397 514h22l-194 -514h-25l-212 514h24l199 -494z" />
    <glyph glyph-name="w" unicode="w" horiz-adv-x="685" 
d="M673 514h20l-164 -514h-26l-160 494l-163 -494h-28l-160 514h20l153 -494l161 494h31l158 -494z" />
    <glyph glyph-name="x" unicode="x" horiz-adv-x="407" 
d="M380 514h24l-188 -248l206 -266h-25l-194 251l-193 -251h-25l206 266l-187 248h26l173 -233z" />
    <glyph glyph-name="y" unicode="y" horiz-adv-x="407" 
d="M398 514h21l-237 -619q-18 -47 -48.5 -59.5t-87.5 -12.5v20q57 0 80 11t40 55l37 96l-215 509h22l204 -487z" />
    <glyph glyph-name="z" unicode="z" horiz-adv-x="407" 
d="M402 20v-20h-397v25l360 469h-333v20h354v-25l-360 -469h376z" />
    <glyph glyph-name="braceleft" unicode="{" horiz-adv-x="333" 
d="M230 -177q-40 0 -56.5 26.5t-16.5 84.5v163q0 67 -14.5 106t-57.5 67v20q31 5 51.5 54t20.5 113v165q0 59 15.5 84t57.5 25h50v-20h-48q-30 0 -42.5 -23t-12.5 -84v-164q0 -53 -17.5 -99.5t-54.5 -62.5q32 -15 52 -61t20 -103v-162q0 -65 12.5 -87t42.5 -22h48v-20h-50z
" />
    <glyph glyph-name="bar" unicode="|" horiz-adv-x="222" 
d="M101 -17v748h20v-748h-20z" />
    <glyph glyph-name="braceright" unicode="}" horiz-adv-x="333" 
d="M103 731q40 0 56.5 -26.5t16.5 -84.5v-163q0 -67 14.5 -106t57.5 -67v-20q-31 -5 -51.5 -54t-20.5 -113v-165q0 -59 -15.5 -84t-57.5 -25h-50v20h48q30 0 42.5 23t12.5 84v164q0 53 17.5 99.5t54.5 62.5q-32 15 -52 61t-20 103v162q0 65 -12.5 87t-42.5 22h-48v20h50z
" />
    <glyph glyph-name="asciitilde" unicode="~" horiz-adv-x="600" 
d="M523 295q-26 -42 -49.5 -64t-59.5 -22q-25 0 -54.5 13.5t-42.5 18.5q-40 19 -64.5 28t-57.5 9t-55 -18.5t-43 -54.5l-20 6q21 39 49.5 63t68.5 24q25 0 53.5 -9t72 -28t60.5 -25.5t34 -6.5q26 0 46 19t42 53z" />
    <glyph glyph-name="Adieresis" unicode="&#xc4;" horiz-adv-x="575" 
d="M462 255l-170 439l-178 -439h348zM106 235l-95 -235h-23l290 714h26l282 -714h-22l-94 235h-364zM200 768v81h20v-81h-20zM356 768v81h20v-81h-20z" />
    <glyph glyph-name="Aring" unicode="&#xc5;" horiz-adv-x="575" 
d="M462 255l-170 439l-178 -439h348zM106 235l-95 -235h-23l290 714h26l282 -714h-22l-94 235h-364zM288 736q-36 0 -62 26t-26 62t26 62t62 26t62 -26t26 -62t-26 -62t-62 -26zM288 892q-28 0 -48 -20t-20 -48t20 -48t48 -20t48 20t20 48t-20 48t-48 20z" />
    <glyph glyph-name="Ccedilla" unicode="&#xc7;" horiz-adv-x="685" 
d="M626 500q-7 83 -80 147t-185 64q-160 0 -238 -112.5t-78 -247.5q0 -144 82 -246t221 -102q124 0 200.5 76.5t93.5 200.5h20q-19 -134 -99.5 -215.5t-209.5 -81.5l-29 -39q9 2 16.5 4t16.5 2q33 0 54 -14.5t21 -45.5q0 -41 -27 -57t-71 -16q-23 0 -48 7t-34 10l9 19
q29 -10 43.5 -13t29.5 -3q32 0 55 12t23 41q0 18 -18.5 29t-36.5 11q-32 0 -54 -13l-15 10l44 57q-136 0 -221.5 104t-85.5 263q0 151 83.5 265.5t252.5 114.5q129 0 207 -76t78 -155h-20z" />
    <glyph glyph-name="Eacute" unicode="&#xc9;" horiz-adv-x="537" 
d="M74 20h458v-20h-478v714h474v-20h-454v-312h427v-20h-427v-342zM375 909l-146 -144h-15l132 144h29z" />
    <glyph glyph-name="Ntilde" unicode="&#xd1;" horiz-adv-x="648" 
d="M54 714h30l488 -689l2 689h20v-714h-30l-488 689l-2 -689h-20v714zM192 780q0 28 21.5 53.5t46.5 25.5q21 0 67.5 -29t59.5 -29q22 0 35.5 16.5t13.5 38.5h20q0 -31 -18 -53t-51 -22q-24 0 -66.5 29t-60.5 29q-19 0 -33.5 -19.5t-14.5 -39.5h-20z" />
    <glyph glyph-name="Odieresis" unicode="&#xd6;" horiz-adv-x="721" 
d="M361 3q142 0 225.5 98.5t83.5 255.5t-83.5 255.5t-225.5 98.5t-225.5 -98.5t-83.5 -255.5t83.5 -255.5t225.5 -98.5zM361 731q155 0 242 -107t87 -267t-87 -267t-242 -107t-242 107t-87 267t87 267t242 107zM273 768v81h20v-81h-20zM429 768v81h20v-81h-20z" />
    <glyph glyph-name="Udieresis" unicode="&#xdc;" horiz-adv-x="632" 
d="M558 714h20v-448q0 -140 -67.5 -211.5t-194.5 -71.5q-262 0 -262 283v448h20v-448q0 -129 60 -196t182 -67t182 66.5t60 196.5v448zM228 768v81h20v-81h-20zM384 768v81h20v-81h-20z" />
    <glyph glyph-name="aacute" unicode="&#xe1;" horiz-adv-x="481" 
d="M400 302q-15 -20 -56.5 -30.5t-144.5 -10.5q-72 0 -114.5 -28.5t-42.5 -105.5q0 -50 36 -84.5t114 -34.5q96 0 152 59t56 140v95zM54 355q0 76 51.5 123.5t144.5 47.5q76 0 123 -34t47 -113v-327q0 -19 11.5 -26.5t29.5 -7.5h12q8 2 12 2v-20h-15q-43 0 -56.5 12.5
t-13.5 37.5v67q-18 -53 -74 -91t-132 -38q-78 0 -125 36t-47 103q0 86 50 120t127 34q117 0 159 14t42 69q0 63 -29 102.5t-121 39.5q-81 0 -128.5 -39.5t-47.5 -111.5h-20zM347 709l-146 -144h-15l132 144h29z" />
    <glyph glyph-name="agrave" unicode="&#xe0;" horiz-adv-x="481" 
d="M400 302q-15 -20 -56.5 -30.5t-144.5 -10.5q-72 0 -114.5 -28.5t-42.5 -105.5q0 -50 36 -84.5t114 -34.5q96 0 152 59t56 140v95zM54 355q0 76 51.5 123.5t144.5 47.5q76 0 123 -34t47 -113v-327q0 -19 11.5 -26.5t29.5 -7.5h12q8 2 12 2v-20h-15q-43 0 -56.5 12.5
t-13.5 37.5v67q-18 -53 -74 -91t-132 -38q-78 0 -125 36t-47 103q0 86 50 120t127 34q117 0 159 14t42 69q0 63 -29 102.5t-121 39.5q-81 0 -128.5 -39.5t-47.5 -111.5h-20zM138 709h29l125 -144h-15z" />
    <glyph glyph-name="acircumflex" unicode="&#xe2;" horiz-adv-x="481" 
d="M400 302q-15 -20 -56.5 -30.5t-144.5 -10.5q-72 0 -114.5 -28.5t-42.5 -105.5q0 -50 36 -84.5t114 -34.5q96 0 152 59t56 140v95zM54 355q0 76 51.5 123.5t144.5 47.5q76 0 123 -34t47 -113v-327q0 -19 11.5 -26.5t29.5 -7.5h12q8 2 12 2v-20h-15q-43 0 -56.5 12.5
t-13.5 37.5v67q-18 -53 -74 -91t-132 -38q-78 0 -125 36t-47 103q0 86 50 120t127 34q117 0 159 14t42 69q0 63 -29 102.5t-121 39.5q-81 0 -128.5 -39.5t-47.5 -111.5h-20zM342 570l-103 123l-99 -123h-20l113 139h15l114 -139h-20z" />
    <glyph glyph-name="adieresis" unicode="&#xe4;" horiz-adv-x="481" 
d="M400 302q-15 -20 -56.5 -30.5t-144.5 -10.5q-72 0 -114.5 -28.5t-42.5 -105.5q0 -50 36 -84.5t114 -34.5q96 0 152 59t56 140v95zM54 355q0 76 51.5 123.5t144.5 47.5q76 0 123 -34t47 -113v-327q0 -19 11.5 -26.5t29.5 -7.5h12q8 2 12 2v-20h-15q-43 0 -56.5 12.5
t-13.5 37.5v67q-18 -53 -74 -91t-132 -38q-78 0 -125 36t-47 103q0 86 50 120t127 34q117 0 159 14t42 69q0 63 -29 102.5t-121 39.5q-81 0 -128.5 -39.5t-47.5 -111.5h-20zM153 568v81h20v-81h-20zM309 568v81h20v-81h-20z" />
    <glyph glyph-name="atilde" unicode="&#xe3;" horiz-adv-x="481" 
d="M400 302q-15 -20 -56.5 -30.5t-144.5 -10.5q-72 0 -114.5 -28.5t-42.5 -105.5q0 -50 36 -84.5t114 -34.5q96 0 152 59t56 140v95zM54 355q0 76 51.5 123.5t144.5 47.5q76 0 123 -34t47 -113v-327q0 -19 11.5 -26.5t29.5 -7.5h12q8 2 12 2v-20h-15q-43 0 -56.5 12.5
t-13.5 37.5v67q-18 -53 -74 -91t-132 -38q-78 0 -125 36t-47 103q0 86 50 120t127 34q117 0 159 14t42 69q0 63 -29 102.5t-121 39.5q-81 0 -128.5 -39.5t-47.5 -111.5h-20zM109 580q0 28 21.5 53.5t46.5 25.5q21 0 67.5 -29t59.5 -29q22 0 35.5 16.5t13.5 38.5h20
q0 -31 -18 -53t-51 -22q-24 0 -66.5 29t-60.5 29q-19 0 -33.5 -19.5t-14.5 -39.5h-20z" />
    <glyph glyph-name="aring" unicode="&#xe5;" horiz-adv-x="481" 
d="M400 302q-15 -20 -56.5 -30.5t-144.5 -10.5q-72 0 -114.5 -28.5t-42.5 -105.5q0 -50 36 -84.5t114 -34.5q96 0 152 59t56 140v95zM54 355q0 76 51.5 123.5t144.5 47.5q76 0 123 -34t47 -113v-327q0 -19 11.5 -26.5t29.5 -7.5h12q8 2 12 2v-20h-15q-43 0 -56.5 12.5
t-13.5 37.5v67q-18 -53 -74 -91t-132 -38q-78 0 -125 36t-47 103q0 86 50 120t127 34q117 0 159 14t42 69q0 63 -29 102.5t-121 39.5q-81 0 -128.5 -39.5t-47.5 -111.5h-20zM241 586q-36 0 -62 26t-26 62t26 62t62 26t62 -26t26 -62t-26 -62t-62 -26zM241 742q-28 0 -48 -20
t-20 -48t20 -48t48 -20t48 20t20 48t-20 48t-48 20z" />
    <glyph glyph-name="ccedilla" unicode="&#xe7;" 
d="M469 175q-8 -85 -63.5 -135.5t-140.5 -50.5l-33 -45q9 2 16.5 4t16.5 2q33 0 54 -14.5t21 -45.5q0 -41 -27 -57t-71 -16q-23 0 -48 7t-34 10l9 19q29 -10 43.5 -13t29.5 -3q32 0 55 12t23 41q0 18 -18.5 29t-36.5 11q-32 0 -54 -13l-15 10l49 63q-98 0 -156 74.5
t-58 181.5q0 120 61 200t179 80q75 0 130 -44.5t64 -123.5h-20q-11 72 -59.5 110t-114.5 38q-113 0 -166.5 -77.5t-53.5 -182.5q0 -100 55 -169t153 -69q78 0 134 46t56 121h20z" />
    <glyph glyph-name="eacute" unicode="&#xe9;" 
d="M455 273q0 101 -53 167t-150 66q-86 0 -146.5 -64t-60.5 -169h410zM45 253q0 -112 49 -178.5t154 -66.5q81 0 134.5 44t66.5 126h20q-10 -87 -70.5 -138.5t-148.5 -51.5q-114 0 -169.5 73.5t-55.5 195.5q0 123 66 196t159 73q112 0 168.5 -78.5t56.5 -194.5h-430z
M356 709l-146 -144h-15l132 144h29z" />
    <glyph glyph-name="egrave" unicode="&#xe8;" 
d="M455 273q0 101 -53 167t-150 66q-86 0 -146.5 -64t-60.5 -169h410zM45 253q0 -112 49 -178.5t154 -66.5q81 0 134.5 44t66.5 126h20q-10 -87 -70.5 -138.5t-148.5 -51.5q-114 0 -169.5 73.5t-55.5 195.5q0 123 66 196t159 73q112 0 168.5 -78.5t56.5 -194.5h-430z
M147 709h29l125 -144h-15z" />
    <glyph glyph-name="ecircumflex" unicode="&#xea;" 
d="M455 273q0 101 -53 167t-150 66q-86 0 -146.5 -64t-60.5 -169h410zM45 253q0 -112 49 -178.5t154 -66.5q81 0 134.5 44t66.5 126h20q-10 -87 -70.5 -138.5t-148.5 -51.5q-114 0 -169.5 73.5t-55.5 195.5q0 123 66 196t159 73q112 0 168.5 -78.5t56.5 -194.5h-430z
M351 570l-103 123l-99 -123h-20l113 139h15l114 -139h-20z" />
    <glyph glyph-name="edieresis" unicode="&#xeb;" 
d="M455 273q0 101 -53 167t-150 66q-86 0 -146.5 -64t-60.5 -169h410zM45 253q0 -112 49 -178.5t154 -66.5q81 0 134.5 44t66.5 126h20q-10 -87 -70.5 -138.5t-148.5 -51.5q-114 0 -169.5 73.5t-55.5 195.5q0 123 66 196t159 73q112 0 168.5 -78.5t56.5 -194.5h-430z
M162 568v81h20v-81h-20zM318 568v81h20v-81h-20z" />
    <glyph glyph-name="iacute" unicode="&#xed;" horiz-adv-x="130" 
d="M55 0v514h20v-514h-20zM171 709l-146 -144h-15l132 144h29z" />
    <glyph glyph-name="igrave" unicode="&#xec;" horiz-adv-x="130" 
d="M55 0v514h20v-514h-20zM-38 709h29l125 -144h-15z" />
    <glyph glyph-name="icircumflex" unicode="&#xee;" horiz-adv-x="130" 
d="M55 0v514h20v-514h-20zM166 570l-103 123l-99 -123h-20l113 139h15l114 -139h-20z" />
    <glyph glyph-name="idieresis" unicode="&#xef;" horiz-adv-x="130" 
d="M55 0v514h20v-514h-20zM-23 568v81h20v-81h-20zM133 568v81h20v-81h-20z" />
    <glyph glyph-name="ntilde" unicode="&#xf1;" 
d="M55 514h20v-127q17 62 65 100.5t122 38.5q82 0 132.5 -48.5t50.5 -136.5v-341h-20v338q0 83 -46.5 125.5t-116.5 42.5q-89 0 -138 -61.5t-49 -153.5v-291h-20v514zM118 580q0 28 21.5 53.5t46.5 25.5q21 0 67.5 -29t59.5 -29q22 0 35.5 16.5t13.5 38.5h20q0 -31 -18 -53
t-51 -22q-24 0 -66.5 29t-60.5 29q-19 0 -33.5 -19.5t-14.5 -39.5h-20z" />
    <glyph glyph-name="oacute" unicode="&#xf3;" horiz-adv-x="519" 
d="M260 526q108 0 169.5 -78.5t61.5 -190.5t-62 -190.5t-170 -78.5t-169.5 78t-61.5 191q0 112 61.5 190.5t170.5 78.5zM260 8q99 0 155 72.5t56 176.5q0 102 -56.5 175.5t-154.5 73.5q-99 0 -155.5 -73t-56.5 -176t56.5 -176t155.5 -73zM366 709l-146 -144h-15l132 144h29z
" />
    <glyph glyph-name="ograve" unicode="&#xf2;" horiz-adv-x="519" 
d="M260 526q108 0 169.5 -78.5t61.5 -190.5t-62 -190.5t-170 -78.5t-169.5 78t-61.5 191q0 112 61.5 190.5t170.5 78.5zM260 8q99 0 155 72.5t56 176.5q0 102 -56.5 175.5t-154.5 73.5q-99 0 -155.5 -73t-56.5 -176t56.5 -176t155.5 -73zM157 709h29l125 -144h-15z" />
    <glyph glyph-name="ocircumflex" unicode="&#xf4;" horiz-adv-x="519" 
d="M260 526q108 0 169.5 -78.5t61.5 -190.5t-62 -190.5t-170 -78.5t-169.5 78t-61.5 191q0 112 61.5 190.5t170.5 78.5zM260 8q99 0 155 72.5t56 176.5q0 102 -56.5 175.5t-154.5 73.5q-99 0 -155.5 -73t-56.5 -176t56.5 -176t155.5 -73zM361 570l-103 123l-99 -123h-20
l113 139h15l114 -139h-20z" />
    <glyph glyph-name="odieresis" unicode="&#xf6;" horiz-adv-x="519" 
d="M260 526q108 0 169.5 -78.5t61.5 -190.5t-62 -190.5t-170 -78.5t-169.5 78t-61.5 191q0 112 61.5 190.5t170.5 78.5zM260 8q99 0 155 72.5t56 176.5q0 102 -56.5 175.5t-154.5 73.5q-99 0 -155.5 -73t-56.5 -176t56.5 -176t155.5 -73zM172 568v81h20v-81h-20zM328 568v81
h20v-81h-20z" />
    <glyph glyph-name="otilde" unicode="&#xf5;" horiz-adv-x="519" 
d="M260 526q108 0 169.5 -78.5t61.5 -190.5t-62 -190.5t-170 -78.5t-169.5 78t-61.5 191q0 112 61.5 190.5t170.5 78.5zM260 8q99 0 155 72.5t56 176.5q0 102 -56.5 175.5t-154.5 73.5q-99 0 -155.5 -73t-56.5 -176t56.5 -176t155.5 -73zM128 580q0 28 21.5 53.5t46.5 25.5
q21 0 67.5 -29t59.5 -29q22 0 35.5 16.5t13.5 38.5h20q0 -31 -18 -53t-51 -22q-24 0 -66.5 29t-60.5 29q-19 0 -33.5 -19.5t-14.5 -39.5h-20z" />
    <glyph glyph-name="uacute" unicode="&#xfa;" 
d="M445 0h-20v127q-17 -62 -65 -100.5t-122 -38.5q-82 0 -132.5 48.5t-50.5 136.5v341h20v-338q0 -83 46.5 -125.5t116.5 -42.5q89 0 138 61.5t49 153.5v291h20v-514zM356 709l-146 -144h-15l132 144h29z" />
    <glyph glyph-name="ugrave" unicode="&#xf9;" 
d="M445 0h-20v127q-17 -62 -65 -100.5t-122 -38.5q-82 0 -132.5 48.5t-50.5 136.5v341h20v-338q0 -83 46.5 -125.5t116.5 -42.5q89 0 138 61.5t49 153.5v291h20v-514zM147 709h29l125 -144h-15z" />
    <glyph glyph-name="ucircumflex" unicode="&#xfb;" 
d="M445 0h-20v127q-17 -62 -65 -100.5t-122 -38.5q-82 0 -132.5 48.5t-50.5 136.5v341h20v-338q0 -83 46.5 -125.5t116.5 -42.5q89 0 138 61.5t49 153.5v291h20v-514zM351 570l-103 123l-99 -123h-20l113 139h15l114 -139h-20z" />
    <glyph glyph-name="udieresis" unicode="&#xfc;" 
d="M445 0h-20v127q-17 -62 -65 -100.5t-122 -38.5q-82 0 -132.5 48.5t-50.5 136.5v341h20v-338q0 -83 46.5 -125.5t116.5 -42.5q89 0 138 61.5t49 153.5v291h20v-514zM162 568v81h20v-81h-20zM318 568v81h20v-81h-20z" />
    <glyph glyph-name="dagger" unicode="&#x2020;" horiz-adv-x="556" 
d="M288 714v-243h208v-20h-208v-591h-20v591h-208v20h208v243h20z" />
    <glyph glyph-name="degree" unicode="&#xb0;" horiz-adv-x="400" 
d="M200 672q-49 0 -86 -37t-37 -86q0 -53 36 -89t87 -36q53 0 88 36t35 89q0 51 -35 87t-88 36zM200 404q-60 0 -101.5 41.5t-41.5 103.5q0 59 41 101t102 42q59 0 101 -42t42 -101q0 -60 -41.5 -102.5t-101.5 -42.5z" />
    <glyph glyph-name="cent" unicode="&#xa2;" horiz-adv-x="556" 
d="M272 505q-92 0 -142.5 -74t-50.5 -173q0 -101 50 -175.5t143 -74.5v497zM292 8h5q73 0 122.5 46.5t57.5 120.5h20q-10 -87 -65.5 -137t-139.5 -50v-109h-20v109q-101 0 -157 80t-56 190q0 108 56.5 187.5t156.5 79.5v88h20v-88q81 0 136 -43.5t64 -123.5h-20
q-11 72 -59.5 109.5t-120.5 37.5v-497z" />
    <glyph glyph-name="sterling" unicode="&#xa3;" horiz-adv-x="556" 
d="M296 365v-20h-149q15 -27 22.5 -63.5t7.5 -72.5q0 -56 -25.5 -103t-73.5 -88l2 -2q22 17 47 27t55 10q27 0 57 -10t56 -20t46.5 -15t35.5 -5q44 0 76 19.5t77 63.5l13 -14q-42 -48 -81 -68.5t-85 -20.5q-28 0 -51.5 7.5t-48.5 17.5q-56 19 -68 22t-27 3
q-35 0 -64.5 -12.5t-60.5 -37.5l-18 20q52 44 85 97t33 109q0 82 -32 136h-76v20h66l-46 92.5t-24 87.5q0 89 66 137.5t160 48.5q107 0 169.5 -57.5t62.5 -158.5l-2 -35h-20q1 8 1 16.5v13.5q0 97 -57 149t-154 52q-87 0 -146.5 -41t-59.5 -125q0 -45 27.5 -96.5l45.5 -83.5
h158z" />
    <glyph glyph-name="section" unicode="&#xa7;" horiz-adv-x="556" 
d="M422 546q0 78 -39.5 121.5t-113.5 43.5q-51 0 -93.5 -27t-42.5 -88q0 -35 15 -57t37.5 -38.5t77 -48t111 -68t91 -79t34.5 -101.5q0 -49 -38.5 -86.5t-78.5 -49.5q36 -30 47.5 -58t11.5 -65q0 -66 -48 -100t-115 -34q-84 0 -129.5 50.5t-45.5 143.5h20q0 -81 37 -127.5
t118 -46.5q70 0 106.5 36.5t36.5 77.5q0 42 -14 67t-54.5 54t-107.5 70.5t-106 68t-60.5 63t-21.5 82.5q0 45 32.5 84t76.5 55q-23 20 -38 46t-15 63q0 73 50.5 103t107.5 30q78 0 124.5 -50.5t46.5 -134.5h-20zM314 399q-24 15 -74 43.5t-56 32.5q-35 -11 -71 -44.5
t-36 -88.5q0 -32 19.5 -65.5t64.5 -62.5l110.5 -71t91.5 -61q39 9 77.5 42t38.5 81q0 51 -32.5 90.5t-132.5 103.5z" />
    <glyph glyph-name="bullet" unicode="&#x2022;" 
d="M250 535q74 0 126.5 -51.5t52.5 -126.5t-52 -127t-127 -52q-74 0 -126 52t-52 127q0 74 52 126t126 52z" />
    <glyph glyph-name="paragraph" unicode="&#xb6;" horiz-adv-x="600" 
d="M491 714v-854h-20v834h-163v-834h-20v468q-97 0 -159.5 55.5t-62.5 134.5q0 93 58.5 144.5t164.5 51.5h202z" />
    <glyph glyph-name="germandbls" unicode="&#xdf;" horiz-adv-x="481" 
d="M202 407q87 0 140 35.5t53 118.5q0 67 -46.5 106t-117.5 39q-60 0 -108 -31t-48 -122v-553h-20v556q0 88 51 129t125 41q76 0 130 -44.5t54 -120.5q0 -64 -32 -107.5t-95 -53.5q83 -9 123.5 -58.5t40.5 -131.5q0 -102 -57.5 -156t-192.5 -54v20q113 0 171.5 41t58.5 149
q0 102 -59 139.5t-171 37.5v20z" />
    <glyph glyph-name="registered" unicode="&#xae;" horiz-adv-x="800" 
d="M274 565h141q142 0 142 -116q0 -52 -32 -82t-80 -30l132 -202h-25l-129 200l-31 -1h-98v-199h-20v430zM398 354q59 0 99 19t40 76q0 54 -34.5 75t-89.5 21h-119v-191h104zM400 731q156 0 265 -109t109 -265t-109 -265t-265 -109t-265 109t-109 265t109 265t265 109z
M400 3q147 0 250.5 103.5t103.5 250.5t-103.5 250.5t-250.5 103.5t-250.5 -103.5t-103.5 -250.5t103.5 -250.5t250.5 -103.5z" />
    <glyph glyph-name="copyright" unicode="&#xa9;" horiz-adv-x="800" 
d="M573 428q-9 63 -55.5 97t-109.5 34q-91 0 -144 -58t-53 -149t54 -151.5t146 -60.5q56 0 101.5 36t60.5 100h20q-16 -70 -65 -113t-117 -43q-99 0 -159.5 65.5t-60.5 165.5q0 101 58 164.5t159 63.5q73 0 124 -40t61 -111h-20zM400 731q156 0 265 -109t109 -265t-109 -265
t-265 -109t-265 109t-109 265t109 265t265 109zM400 3q147 0 250.5 103.5t103.5 250.5t-103.5 250.5t-250.5 103.5t-250.5 -103.5t-103.5 -250.5t103.5 -250.5t250.5 -103.5z" />
    <glyph glyph-name="trademark" unicode="&#x2122;" horiz-adv-x="990" 
d="M232 694h-150v20h320v-20h-150v-392h-20v392zM496 714h34l162 -384l162 384h34v-412h-20v392l-166 -392h-20l-164 392l-2 -392h-20v412z" />
    <glyph glyph-name="acute" unicode="&#xb4;" horiz-adv-x="130" 
d="M171 731l-146 -144h-15l132 144h29z" />
    <glyph glyph-name="dieresis" unicode="&#xa8;" horiz-adv-x="130" 
d="M-23 590v81h20v-81h-20zM133 590v81h20v-81h-20z" />
    <glyph glyph-name="notequal" unicode="&#x2260;" horiz-adv-x="549" 
d="M413 336h91v-64h-149l-73 -72h222v-64h-281l-118 -118l-43 44l74 74h-91v64h150l73 72h-223v64h281l118 118l44 -44z" />
    <glyph glyph-name="AE" unicode="&#xc6;" horiz-adv-x="852" 
d="M155 274l-145 -274h-22l378 714h469v-20h-392v-312h360v-20h-360v-342h392v-20h-412v274h-268zM376 696l-211 -402h258v402h-47z" />
    <glyph glyph-name="Oslash" unicode="&#xd8;" horiz-adv-x="721" 
d="M581 617q-40 45 -96 69.5t-124 24.5q-142 0 -225.5 -98.5t-83.5 -255.5q0 -73 19 -134.5t56 -108.5zM140 99q40 -47 95 -71.5t126 -24.5q142 0 225.5 98.5t83.5 255.5q0 149 -76 244zM113 98q-39 49 -60 116.5t-21 142.5q0 160 87 267t242 107q75 0 133 -25.5t101 -73.5
l59 65l15 -12l-61 -68q82 -102 82 -260q0 -160 -87 -267t-242 -107q-74 0 -133.5 26t-101.5 75l-71 -79l-15 12z" />
    <glyph glyph-name="infinity" unicode="&#x221e;" horiz-adv-x="713" 
d="M383 271q23 -45 58 -70q35 -23 77 -23q52 0 84.5 35t32.5 90q0 56 -30 89.5t-80 33.5q-37 0 -71 -36t-71 -119zM330 327q-26 46 -59 69.5t-76 23.5q-51 0 -84 -35t-33 -90q0 -54 29.5 -88.5t76.5 -34.5q40 0 71.5 31.5t74.5 123.5zM366 238q-33 -62 -71.5 -93t-85.5 -31
q-66 0 -111 52.5t-45 131.5q0 83 41 134.5t105 51.5q47 0 82.5 -29.5t65.5 -94.5q31 62 69.5 93t87.5 31q63 0 109 -53t46 -131q0 -83 -40.5 -134.5t-104.5 -51.5q-46 0 -84 30q-36 31 -64 94z" />
    <glyph glyph-name="plusminus" unicode="&#xb1;" horiz-adv-x="600" 
d="M290 506h20v-198h242v-20h-242v-198h-20v198h-242v20h242v198zM48 20h504v-20h-504v20z" />
    <glyph glyph-name="lessequal" unicode="&#x2264;" horiz-adv-x="549" 
d="M506 18h-463v68h463v-68zM162 280l344 -107v-70l-462 145v65l462 145v-70z" />
    <glyph glyph-name="greaterequal" unicode="&#x2265;" horiz-adv-x="549" 
d="M506 18h-463v68h463v-68zM506 248l-463 -145v70l344 107l-344 108v70l463 -145v-65z" />
    <glyph glyph-name="yen" unicode="&#xa5;" horiz-adv-x="556" 
d="M287 203h147v-20h-147v-183h-20v183h-147v20h147v102h-147v20h138l-237 389h22l234 -383l236 383h22l-237 -389h136v-20h-147v-102z" />
    <glyph glyph-name="mu" unicode="&#xb5;" horiz-adv-x="556" 
d="M472 0h-20v127q-16 -62 -65 -100.5t-122 -38.5q-53 0 -96 22.5t-64 70.5l-2 -258h-20v691h19v-338q0 -83 46.5 -125.5t116.5 -42.5q89 0 138 61.5t49 153.5v291h20v-514z" />
    <glyph glyph-name="partialdiff" unicode="&#x2202;" horiz-adv-x="494" 
d="M256 349q-52 0 -86 -60t-34 -161q0 -57 21.5 -88t62.5 -31q53 0 87 62t34 153q0 58 -21.5 91.5t-63.5 33.5zM358 287q4 14 6.5 28t2.5 31l3 89q0 85 -15.5 126t-47.5 41q-18 0 -50 -35t-56 -35q-16 0 -25.5 7.5t-11.5 24.5q0 29 30.5 50t71.5 21q77 0 111.5 -54
t46.5 -103t12 -111q0 -163 -64.5 -271.5t-157.5 -108.5q-68 0 -110 51t-42 137q0 82 53 143.5t125 61.5q44 0 72.5 -22t45.5 -71z" />
    <glyph glyph-name="summation" unicode="&#x3a3;" horiz-adv-x="713" 
d="M618 643l15 -129h-44q-32 105 -85 144t-169 39h-132l315 -431l-344 -394h187q122 0 172.5 31.5t82.5 116.5h45l-30 -130l-2 -7q-23 -99 -111 -99h-482l389 446l-375 514h460q65 0 82 -15q17 -13 26 -86z" />
    <glyph glyph-name="product" unicode="&#x220f;" horiz-adv-x="823" 
d="M118 -176v880h-88v40h767v-40h-88v-880h88v-40h-264v40h84v880h-407v-880h84v-40h-264v40h88z" />
    <glyph glyph-name="pi" unicode="&#x3c0;" horiz-adv-x="549" 
d="M404 373l-1 -24l-3 -150v-40q0 -84 8.5 -105t30.5 -21q28 0 41 29q17 31 17 89h25v-5q0 -80 -26 -118t-80 -38q-56 0 -79.5 40t-23.5 164l1 78l3 104l-50 1l-77 2q0 -234 -23 -311.5t-80 -77.5q-35 0 -52.5 29t-17.5 86v19h24q0 -27 9.5 -39.5t27.5 -12.5q42 0 54.5 47
t18 110.5t5.5 149.5h-22q-38 0 -59.5 -13.5t-27.5 -39.5h-23q0 34 10 57.5t36.5 44.5t112.5 21l102 -3l152 -3q34 0 49.5 7t16.5 21l23 1q0 -53 -23.5 -76.5t-74.5 -23.5h-14z" />
    <glyph glyph-name="integral" unicode="&#x222b;" horiz-adv-x="274" 
d="M283 757q36 0 58.5 -18.5t22.5 -48.5q0 -20 -13 -34t-36 -14q-29 0 -44 32t-29 32q-57 0 -57 -310l-3 -98q0 -63 -4.5 -120t-14 -128t-31 -120t-60 -80t-81.5 -31q-35 0 -58 18.5t-23 48.5q0 22 12.5 34.5t36.5 12.5q29 0 44 -31t30 -32q57 0 57 324l2 84q0 60 4 116
t13.5 127.5t31.5 122.5t59.5 82t82.5 31z" />
    <glyph glyph-name="ordfeminine" unicode="&#xaa;" horiz-adv-x="300" 
d="M246 552q-13 -17 -51 -20t-79.5 -7t-68.5 -19t-27 -55q0 -32 26.5 -48t65.5 -16q62 0 98 33t36 84v48zM300 374q-27 0 -40.5 4.5t-13.5 26.5v41l-2 -7q-23 -72 -132 -72q-49 0 -80.5 20.5t-31.5 63.5q0 54 34 74.5t89 20.5h24q63 0 81 11t18 34q0 43 -23 62t-74 19
q-97 0 -108 -84h-20q11 104 128 104q54 0 85.5 -20.5t31.5 -68.5v-190q0 -21 20 -21q4 0 14 2v-20z" />
    <glyph glyph-name="ordmasculine" unicode="&#xba;" horiz-adv-x="300" 
d="M151 692q70 0 110 -47t40 -114q0 -68 -40 -116t-111 -48q-69 0 -109.5 48t-40.5 116t40 114.5t111 46.5zM151 387q59 0 94.5 43t35.5 101q0 56 -35.5 98.5t-94.5 42.5q-60 0 -95.5 -42t-35.5 -99q0 -58 35.5 -101t95.5 -43z" />
    <glyph glyph-name="Omega" unicode="&#x3a9;" horiz-adv-x="768" 
d="M593 90q48 0 68 19t20 67h23v-176h-272v180q77 15 122.5 76.5t45.5 151.5q0 106 -59 168.5t-157 62.5t-157 -62.5t-59 -168.5q0 -90 44.5 -151t123.5 -77v-180h-272v176h23q0 -48 19 -67t69 -19h123v59q-118 21 -183 89t-65 170q0 121 92.5 194t241.5 73t241.5 -73.5
t92.5 -193.5q0 -100 -64 -168t-184 -91v-59h123z" />
    <glyph glyph-name="ae" unicode="&#xe6;" horiz-adv-x="889" 
d="M837 273q0 101 -51.5 167t-148.5 66q-95 0 -151 -63t-56 -170h407zM410 302q-15 -20 -56.5 -30.5t-144.5 -10.5q-72 0 -114.5 -28.5t-42.5 -105.5q0 -50 36 -84.5t114 -34.5q96 0 152 59t56 140v95zM64 355q0 76 51.5 123.5t144.5 47.5q77 0 123.5 -34.5t46.5 -115.5
q23 67 76.5 108.5t130.5 41.5q110 0 165 -77.5t55 -195.5h-427q0 -110 50.5 -177.5t154.5 -67.5q79 0 134 44.5t65 125.5h20q-8 -85 -68 -137.5t-151 -52.5q-83 0 -137 43t-75 124q-16 -77 -76.5 -122t-142.5 -45q-78 0 -125 36t-47 103q0 86 50 120t127 34q117 0 159 14
t42 69q0 63 -29 102.5t-121 39.5q-81 0 -128.5 -39.5t-47.5 -111.5h-20z" />
    <glyph glyph-name="oslash" unicode="&#xf8;" horiz-adv-x="519" 
d="M412 434q-26 34 -65 53t-87 19q-99 0 -155.5 -73t-56.5 -176q0 -91 44 -158zM104 83q27 -36 66 -55.5t90 -19.5q99 0 155 72.5t56 176.5q0 44 -12 85.5t-35 75.5zM472 496l14 -14l-47 -49q52 -72 52 -176q0 -112 -62 -190.5t-170 -78.5q-54 0 -96.5 20.5t-73.5 58.5
l-57 -59l-14 14l60 62q-24 34 -37 79.5t-13 93.5q0 112 61.5 190.5t170.5 78.5q53 0 94.5 -19.5t72.5 -57.5z" />
    <glyph glyph-name="questiondown" unicode="&#xbf;" 
d="M465 49q0 -108 -56.5 -173t-160.5 -65q-86 0 -141.5 44t-55.5 122q0 65 26.5 103t70.5 76q57 55 78 95.5t21 108.5h20q0 -68 -20 -112t-63 -85.5l-70 -67.5q-43 -54 -43 -118q0 -69 49 -107.5t128 -38.5q97 0 147 58.5t50 159.5h20zM268 542v-98h-20v98h20z" />
    <glyph glyph-name="exclamdown" unicode="&#xa1;" horiz-adv-x="185" 
d="M103 542v-98h-20v98h20zM103 360v-537h-20v537h20z" />
    <glyph glyph-name="logicalnot" unicode="&#xac;" horiz-adv-x="600" 
d="M532 340h-484v20h504v-267h-20v247z" />
    <glyph glyph-name="radical" unicode="&#x221a;" horiz-adv-x="549" 
d="M594 764h-57l-290 -784h-32l-156 431l-61 -22l-12 39l138 48l125 -346l252 681h93v-47z" />
    <glyph glyph-name="florin" unicode="&#x192;" horiz-adv-x="556" 
d="M189 -55q-10 -54 -40.5 -88t-85.5 -34q-15 0 -26.5 1t-23.5 5l5 20q21 -6 42 -6q47 0 72.5 27.5t35.5 78.5l91 462h-119l4 20h119l39 195q11 54 44.5 79.5t87.5 25.5q19 0 28.5 -1t26.5 -6l-4 -19l-26.5 4t-26.5 2q-48 0 -73.5 -21t-36.5 -75l-37 -184h127l-4 -20h-127z
" />
    <glyph glyph-name="approxequal" unicode="&#x2248;" horiz-adv-x="549" 
d="M15 100v77q49 31 87 44.5t74 13.5q44 0 115 -24t99 -24t61.5 15t82.5 52v-78q-42 -28 -76.5 -41.5t-72.5 -13.5q-32 0 -104 23.5t-116 23.5q-28 0 -53.5 -11t-48 -24.5t-48.5 -32.5zM15 219v77q23 14 43.5 25t50.5 21.5t66 10.5q42 0 114.5 -23.5t100.5 -23.5
q27 0 60 14.5t84 51.5v-77q-18 -12 -41 -24t-49 -21.5t-59 -9.5t-104.5 23.5t-110.5 23.5q-35 0 -66 -13.5t-89 -54.5z" />
    <glyph glyph-name="Delta" unicode="&#x2206;" horiz-adv-x="612" 
d="M92 45h373l-186 459zM595 0h-574l276 672h22z" />
    <glyph glyph-name="guillemotleft" unicode="&#xab;" horiz-adv-x="352" 
d="M169 121l-103 139v16l103 139v-35l-83 -112l83 -112v-35zM262 121l-103 139v16l103 139v-35l-83 -112l83 -112v-35z" />
    <glyph glyph-name="guillemotright" unicode="&#xbb;" horiz-adv-x="352" 
d="M183 415l103 -139v-16l-103 -139v35l83 112l-83 112v35zM90 415l103 -139v-16l-103 -139v35l83 112l-83 112v35z" />
    <glyph glyph-name="ellipsis" unicode="&#x2026;" horiz-adv-x="1000" 
d="M177 0h-20v98h20v-98zM510 0h-20v98h20v-98zM843 0h-20v98h20v-98z" />
    <glyph glyph-name="nonbreakingspace" unicode="&#xa0;" horiz-adv-x="250" 
 />
    <glyph glyph-name="Agrave" unicode="&#xc0;" horiz-adv-x="575" 
d="M462 255l-170 439l-178 -439h348zM106 235l-95 -235h-23l290 714h26l282 -714h-22l-94 235h-364zM185 909h29l125 -144h-15z" />
    <glyph glyph-name="Atilde" unicode="&#xc3;" horiz-adv-x="575" 
d="M462 255l-170 439l-178 -439h348zM106 235l-95 -235h-23l290 714h26l282 -714h-22l-94 235h-364zM156 780q0 28 21.5 53.5t46.5 25.5q21 0 67.5 -29t59.5 -29q22 0 35.5 16.5t13.5 38.5h20q0 -31 -18 -53t-51 -22q-24 0 -66.5 29t-60.5 29q-19 0 -33.5 -19.5t-14.5 -39.5
h-20z" />
    <glyph glyph-name="Otilde" unicode="&#xd5;" horiz-adv-x="721" 
d="M361 3q142 0 225.5 98.5t83.5 255.5t-83.5 255.5t-225.5 98.5t-225.5 -98.5t-83.5 -255.5t83.5 -255.5t225.5 -98.5zM361 731q155 0 242 -107t87 -267t-87 -267t-242 -107t-242 107t-87 267t87 267t242 107zM229 780q0 28 21.5 53.5t46.5 25.5q21 0 67.5 -29t59.5 -29
q22 0 35.5 16.5t13.5 38.5h20q0 -31 -18 -53t-51 -22q-24 0 -66.5 29t-60.5 29q-19 0 -33.5 -19.5t-14.5 -39.5h-20z" />
    <glyph glyph-name="OE" unicode="&#x152;" horiz-adv-x="1019" 
d="M944 382v-20h-366v-342h414v-20h-434v65q-40 -41 -91 -61.5t-105 -20.5q-156 0 -243 106t-87 264q0 159 86.5 268.5t243.5 109.5q63 0 110 -18.5t86 -63.5v65h434v-20h-414v-312h366zM558 623q-45 47 -89.5 67.5t-106.5 20.5q-142 0 -226 -97.5t-84 -260.5
q0 -155 83.5 -252.5t226.5 -97.5q53 0 104 21.5t92 69.5v529z" />
    <glyph glyph-name="oe" unicode="&#x153;" horiz-adv-x="890" 
d="M836 273q0 104 -46 168.5t-143 64.5q-98 0 -145.5 -63.5t-47.5 -169.5h382zM243 506q-97 0 -144 -72t-47 -177t47 -177t144 -72q102 0 146.5 69.5t44.5 179.5q0 108 -45.5 178.5t-145.5 70.5zM454 253q0 -121 47 -183t145 -62q82 0 126 45.5t57 119.5h20
q-14 -86 -65.5 -135.5t-137.5 -49.5q-85 0 -137 44t-64 125q-19 -80 -69 -124.5t-133 -44.5q-106 0 -158.5 78.5t-52.5 190.5t51.5 190.5t159.5 78.5q81 0 134.5 -48.5t64.5 -127.5q16 80 66 128t138 48q104 0 157 -74t53 -184v-15h-402z" />
    <glyph glyph-name="endash" unicode="&#x2013;" 
d="M0 278h500v-20h-500v20z" />
    <glyph glyph-name="emdash" unicode="&#x2014;" horiz-adv-x="1000" 
d="M1000 258h-1000v20h1000v-20z" />
    <glyph glyph-name="quotedblleft" unicode="&#x201c;" horiz-adv-x="278" 
d="M83 489v118q0 53 8.5 72.5t36.5 34.5v-20q-25 -16 -25 -87v-118h-20zM183 489v118q0 53 8.5 72.5t36.5 34.5v-20q-25 -16 -25 -87v-118h-20z" />
    <glyph glyph-name="quotedblright" unicode="&#x201d;" horiz-adv-x="278" 
d="M195 714v-118q0 -53 -8.5 -72.5t-36.5 -34.5v20q25 16 25 87v118h20zM95 714v-118q0 -53 -8.5 -72.5t-36.5 -34.5v20q25 16 25 87v118h20z" />
    <glyph glyph-name="quoteleft" unicode="&#x2018;" horiz-adv-x="167" 
d="M73 489v118q0 53 8.5 72.5t36.5 34.5v-20q-25 -16 -25 -87v-118h-20z" />
    <glyph glyph-name="quoteright" unicode="&#x2019;" horiz-adv-x="167" 
d="M94 714v-118q0 -53 -8.5 -72.5t-36.5 -34.5v20q25 16 25 87v118h20z" />
    <glyph glyph-name="divide" unicode="&#xf7;" horiz-adv-x="600" 
d="M48 243v20h504v-20h-504zM259 465q0 17 12 29t29 12t29 -12t12 -29q0 -19 -9.5 -30t-31.5 -11q-20 0 -30.5 11.5t-10.5 29.5zM259 41q0 17 12 29t29 12t29 -12t12 -29q0 -19 -9.5 -30t-31.5 -11q-20 0 -30.5 11.5t-10.5 29.5z" />
    <glyph glyph-name="lozenge" unicode="&#x25ca;" horiz-adv-x="494" 
d="M247 688l-188 -399l188 -403l188 403zM247 807l244 -518l-244 -522l-244 522z" />
    <glyph glyph-name="ydieresis" unicode="&#xff;" horiz-adv-x="407" 
d="M398 514h21l-237 -619q-18 -47 -48.5 -59.5t-87.5 -12.5v20q57 0 80 11t40 55l37 96l-215 509h22l204 -487zM116 590v81h20v-81h-20zM272 590v81h20v-81h-20z" />
    <glyph glyph-name="Ydieresis" unicode="&#x178;" horiz-adv-x="538" 
d="M544 714h24l-289 -413v-301h-20v301l-289 413h25l274 -392zM181 768v81h20v-81h-20zM337 768v81h20v-81h-20z" />
    <glyph glyph-name="fraction" unicode="&#x2215;" horiz-adv-x="167" 
d="M310 714h23l-476 -748h-23z" />
    <glyph glyph-name="currency" unicode="&#xa4;" horiz-adv-x="556" 
d="M503 579l14 -14l-57 -57q66 -71 66 -168q0 -96 -66 -168l57 -57l-14 -14l-57 57q-72 -66 -168 -66t-168 66l-57 -57l-14 14l57 57q-66 72 -66 168t66 168l-57 57l14 14l57 -57q72 66 168 66q97 0 168 -66zM278 568q-94 0 -161 -67t-67 -161t67 -161t161 -67t161 67
t67 161q0 95 -66.5 161.5t-161.5 66.5z" />
    <glyph glyph-name="guilsinglleft" unicode="&#x2039;" horiz-adv-x="259" 
d="M169 121l-103 139v16l103 139v-35l-83 -112l83 -112v-35z" />
    <glyph glyph-name="guilsinglright" unicode="&#x203a;" horiz-adv-x="259" 
d="M90 415l103 -139v-16l-103 -139v35l83 112l-83 112v35z" />
    <glyph glyph-name="fi" unicode="&#xf001;" horiz-adv-x="333" 
d="M278 0h-20v514h20v-514zM278 613h-20v101h20v-101zM-1 494v20h88v114q0 55 27.5 70.5t73.5 15.5q15 0 24 -1.5t19 -2.5v-20q-25 4 -47 4q-46 0 -61.5 -16.5t-15.5 -56.5v-107h111v-20h-111v-494h-20v494h-88z" />
    <glyph glyph-name="fl" unicode="&#xf002;" horiz-adv-x="333" 
d="M-1 494v20h88v114q0 55 27.5 70.5t73.5 15.5q15 0 24 -1.5t19 -2.5v-20q-25 4 -47 4q-46 0 -61.5 -16.5t-15.5 -56.5v-107h111v-20h-111v-494h-20v494h-88zM278 0h-20v714h20v-714z" />
    <glyph glyph-name="daggerdbl" unicode="&#x2021;" horiz-adv-x="556" 
d="M60 57v20h208v420h-208v20h208v197h20v-197h208v-20h-208v-420h208v-20h-208v-197h-20v197h-208z" />
    <glyph glyph-name="periodcentered" unicode="&#x2219;" horiz-adv-x="278" 
d="M139 372q32 0 32 -32t-32 -32t-32 32t32 32z" />
    <glyph glyph-name="quotesinglbase" unicode="&#x201a;" horiz-adv-x="167" 
d="M93 98v-98q0 -48 -9.5 -75t-35.5 -44v20q25 24 25 99v98h20z" />
    <glyph glyph-name="quotedblbase" unicode="&#x201e;" horiz-adv-x="278" 
d="M195 98v-98q0 -48 -9.5 -75t-35.5 -44v20q25 24 25 99v98h20zM95 98v-98q0 -48 -9.5 -75t-35.5 -44v20q25 24 25 99v98h20z" />
    <glyph glyph-name="perthousand" unicode="&#x2030;" horiz-adv-x="1037" 
d="M173 692q74 0 114.5 -47.5t40.5 -124.5q0 -72 -41.5 -121t-113.5 -49q-74 0 -113 48.5t-39 120.5q0 78 40 125.5t112 47.5zM173 370q64 0 99.5 42.5t35.5 106.5q0 71 -33.5 112t-101.5 41q-66 0 -99 -41.5t-33 -111.5q0 -65 33.5 -107t98.5 -42zM501 330
q74 0 114.5 -47.5t40.5 -124.5q0 -72 -41.5 -121t-113.5 -49q-74 0 -113 48.5t-39 120.5q0 78 40 125.5t112 47.5zM501 8q64 0 99.5 42.5t35.5 106.5q0 71 -33.5 112t-101.5 41q-66 0 -99 -41.5t-33 -111.5q0 -65 33.5 -107t98.5 -42zM861 330q74 0 114.5 -47.5t40.5 -124.5
q0 -72 -41.5 -121t-113.5 -49q-74 0 -113 48.5t-39 120.5q0 78 40 125.5t112 47.5zM861 8q64 0 99.5 42.5t35.5 106.5q0 71 -33.5 112t-101.5 41q-66 0 -99 -41.5t-33 -111.5q0 -65 33.5 -107t98.5 -42zM565 714h23l-476 -748h-23z" />
    <glyph glyph-name="Acircumflex" unicode="&#xc2;" horiz-adv-x="575" 
d="M462 255l-170 439l-178 -439h348zM106 235l-95 -235h-23l290 714h26l282 -714h-22l-94 235h-364zM389 770l-103 123l-99 -123h-20l113 139h15l114 -139h-20z" />
    <glyph glyph-name="Ecircumflex" unicode="&#xca;" horiz-adv-x="537" 
d="M74 20h458v-20h-478v714h474v-20h-454v-312h427v-20h-427v-342zM370 770l-103 123l-99 -123h-20l113 139h15l114 -139h-20z" />
    <glyph glyph-name="Aacute" unicode="&#xc1;" horiz-adv-x="575" 
d="M462 255l-170 439l-178 -439h348zM106 235l-95 -235h-23l290 714h26l282 -714h-22l-94 235h-364zM394 909l-146 -144h-15l132 144h29z" />
    <glyph glyph-name="Edieresis" unicode="&#xcb;" horiz-adv-x="537" 
d="M74 20h458v-20h-478v714h474v-20h-454v-312h427v-20h-427v-342zM181 768v81h20v-81h-20zM337 768v81h20v-81h-20z" />
    <glyph glyph-name="Egrave" unicode="&#xc8;" horiz-adv-x="537" 
d="M74 20h458v-20h-478v714h474v-20h-454v-312h427v-20h-427v-342zM166 909h29l125 -144h-15z" />
    <glyph glyph-name="Iacute" unicode="&#xcd;" horiz-adv-x="128" 
d="M54 714h20v-714h-20v714zM170 909l-146 -144h-15l132 144h29z" />
    <glyph glyph-name="Icircumflex" unicode="&#xce;" horiz-adv-x="128" 
d="M54 714h20v-714h-20v714zM165 770l-103 123l-99 -123h-20l113 139h15l114 -139h-20z" />
    <glyph glyph-name="Idieresis" unicode="&#xcf;" horiz-adv-x="128" 
d="M54 714h20v-714h-20v714zM-24 768v81h20v-81h-20zM132 768v81h20v-81h-20z" />
    <glyph glyph-name="Igrave" unicode="&#xcc;" horiz-adv-x="128" 
d="M54 714h20v-714h-20v714zM-39 909h29l125 -144h-15z" />
    <glyph glyph-name="Oacute" unicode="&#xd3;" horiz-adv-x="721" 
d="M361 3q142 0 225.5 98.5t83.5 255.5t-83.5 255.5t-225.5 98.5t-225.5 -98.5t-83.5 -255.5t83.5 -255.5t225.5 -98.5zM361 731q155 0 242 -107t87 -267t-87 -267t-242 -107t-242 107t-87 267t87 267t242 107zM467 909l-146 -144h-15l132 144h29z" />
    <glyph glyph-name="Ocircumflex" unicode="&#xd4;" horiz-adv-x="721" 
d="M361 3q142 0 225.5 98.5t83.5 255.5t-83.5 255.5t-225.5 98.5t-225.5 -98.5t-83.5 -255.5t83.5 -255.5t225.5 -98.5zM361 731q155 0 242 -107t87 -267t-87 -267t-242 -107t-242 107t-87 267t87 267t242 107zM462 770l-103 123l-99 -123h-20l113 139h15l114 -139h-20z" />
    <glyph glyph-name="apple" unicode="&#xf000;" horiz-adv-x="790" 
d="M408 594l-1 7v11q0 61 46 112t116 64v-12l1 -18q0 -64 -50.5 -114.5t-99.5 -50.5h-4zM735 197q-56 -121 -101 -167.5t-99 -46.5q-25 0 -64 16t-60 16q-23 0 -64 -16t-62 -16q-30 0 -63 21q-13 10 -30.5 27.5t-48.5 60t-59.5 120.5t-28.5 148q0 107 61.5 174.5t157.5 67.5
q16 0 35.5 -4t51.5 -17t49 -13q18 0 61 17t73 17q55 0 97.5 -19.5t77.5 -60.5q-49 -31 -73.5 -70.5t-24.5 -89.5q0 -54 30 -98t84 -67z" />
    <glyph glyph-name="Ograve" unicode="&#xd2;" horiz-adv-x="721" 
d="M361 3q142 0 225.5 98.5t83.5 255.5t-83.5 255.5t-225.5 98.5t-225.5 -98.5t-83.5 -255.5t83.5 -255.5t225.5 -98.5zM361 731q155 0 242 -107t87 -267t-87 -267t-242 -107t-242 107t-87 267t87 267t242 107zM258 909h29l125 -144h-15z" />
    <glyph glyph-name="Uacute" unicode="&#xda;" horiz-adv-x="632" 
d="M558 714h20v-448q0 -140 -67.5 -211.5t-194.5 -71.5q-262 0 -262 283v448h20v-448q0 -129 60 -196t182 -67t182 66.5t60 196.5v448zM422 909l-146 -144h-15l132 144h29z" />
    <glyph glyph-name="Ucircumflex" unicode="&#xdb;" horiz-adv-x="632" 
d="M558 714h20v-448q0 -140 -67.5 -211.5t-194.5 -71.5q-262 0 -262 283v448h20v-448q0 -129 60 -196t182 -67t182 66.5t60 196.5v448zM417 770l-103 123l-99 -123h-20l113 139h15l114 -139h-20z" />
    <glyph glyph-name="Ugrave" unicode="&#xd9;" horiz-adv-x="632" 
d="M558 714h20v-448q0 -140 -67.5 -211.5t-194.5 -71.5q-262 0 -262 283v448h20v-448q0 -129 60 -196t182 -67t182 66.5t60 196.5v448zM213 909h29l125 -144h-15z" />
    <glyph glyph-name="dotlessi" unicode="&#x131;" horiz-adv-x="130" 
d="M55 0v514h20v-514h-20z" />
    <glyph glyph-name="circumflex" unicode="&#x302;" horiz-adv-x="130" 
d="M166 592l-103 123l-99 -123h-20l113 139h15l114 -139h-20z" />
    <glyph glyph-name="tilde" unicode="&#x303;" horiz-adv-x="130" 
d="M-67 602q0 28 21.5 53.5t46.5 25.5q21 0 67.5 -29t59.5 -29q22 0 35.5 16.5t13.5 38.5h20q0 -31 -18 -53t-51 -22q-24 0 -66.5 29t-60.5 29q-19 0 -33.5 -19.5t-14.5 -39.5h-20z" />
    <glyph glyph-name="macron" unicode="&#x2c9;" horiz-adv-x="130" 
d="M181 628h-232v20h232v-20z" />
    <glyph glyph-name="breve" unicode="&#x2d8;" horiz-adv-x="130" 
d="M-38 731q5 -40 32 -63.5t68 -23.5q45 0 73.5 22t32.5 65h20q-6 -51 -40 -79t-86 -28q-48 0 -81 30t-39 77h20z" />
    <glyph glyph-name="dotaccent" unicode="&#x2d9;" horiz-adv-x="130" 
d="M75 671v-81h-20v81h20z" />
    <glyph glyph-name="ring" unicode="&#x2da;" horiz-adv-x="130" 
d="M65 586q-36 0 -62 26t-26 62t26 62t62 26t62 -26t26 -62t-26 -62t-62 -26zM65 742q-28 0 -48 -20t-20 -48t20 -48t48 -20t48 20t20 48t-20 48t-48 20z" />
    <glyph glyph-name="cedilla" unicode="&#xb8;" horiz-adv-x="130" 
d="M-16 -147q29 -10 43.5 -13t29.5 -3q32 0 55 12t23 41q0 18 -18.5 29t-36.5 11q-32 0 -54 -13l-15 10l57 73h20l-41 -56q9 2 16.5 4t16.5 2q33 0 54 -14.5t21 -45.5q0 -41 -27 -57t-71 -16q-23 0 -48 7t-34 10z" />
    <glyph glyph-name="hungarumlaut" unicode="&#x2ba;" horiz-adv-x="130" 
d="M116 731l-146 -144h-15l132 144h29zM266 731l-146 -144h-15l132 144h29z" />
    <glyph glyph-name="ogonek" unicode="&#x2db;" horiz-adv-x="130" 
d="M110 0q-57 -43 -81.5 -72.5t-24.5 -53.5q0 -17 14 -30t41 -13q28 0 47 9t30 22l17 -12q-19 -21 -43 -30t-51 -9q-36 0 -55.5 18.5t-19.5 43.5q0 33 26.5 63.5t70.5 63.5h29z" />
    <glyph glyph-name="caron" unicode="&#x2c7;" horiz-adv-x="130" 
d="M-36 731l103 -123l99 123h20l-113 -139h-15l-114 139h20z" />
    <glyph glyph-name="Lslash" horiz-adv-x="481" 
d="M54 0v269l-74 -52v24l74 52v421h20v-407l248 174v-24l-248 -174v-263h417v-20h-437z" />
    <glyph glyph-name="lslash" horiz-adv-x="130" 
d="M75 714v-297l73 63v-25l-73 -63v-392h-20v375l-73 -63v25l73 63v314h20z" />
    <glyph glyph-name="Scaron" horiz-adv-x="611" 
d="M531 514q0 103 -63 150t-169 47q-91 0 -157.5 -38.5t-66.5 -125.5q0 -100 64.5 -122.5t175 -50t149.5 -41t70 -51t31 -107.5q0 -94 -75 -143t-177 -49q-129 0 -204 62t-75 192h20q0 -122 68.5 -178t190.5 -56q95 0 163.5 43.5t68.5 129.5q0 93 -55.5 121t-174 56.5
t-189.5 56t-71 137.5q0 97 71.5 140.5t172.5 43.5q114 0 183 -52t69 -165h-20zM205 931l103 -123l99 123h20l-113 -139h-15l-114 139h20z" />
    <glyph glyph-name="scaron" horiz-adv-x="463" 
d="M390 362q0 73 -44.5 108.5t-121.5 35.5q-73 0 -113.5 -30t-40.5 -79q0 -37 14 -58t38 -30t62 -19.5l107.5 -28.5t101 -48.5t31.5 -81.5q0 -72 -55 -107.5t-131 -35.5q-104 0 -156 45.5t-52 142.5h20q0 -85 48 -126.5t140 -41.5q65 0 115.5 30t50.5 91q0 60 -41 81.5
t-111 39t-94.5 25t-66 25.5t-41.5 97q0 50 43 89.5t131 39.5q89 0 137.5 -40t48.5 -124h-20zM131 731l103 -123l99 123h20l-113 -139h-15l-114 139h20z" />
    <glyph glyph-name="Zcaron" 
d="M508 20v-20h-527v27l499 667h-471v20h491v-27l-499 -667h507zM149 931l103 -123l99 123h20l-113 -139h-15l-114 139h20z" />
    <glyph glyph-name="zcaron" horiz-adv-x="407" 
d="M402 20v-20h-397v25l360 469h-333v20h354v-25l-360 -469h376zM103 731l103 -123l99 123h20l-113 -139h-15l-114 139h20z" />
    <glyph glyph-name="brokenbar" horiz-adv-x="222" 
d="M121 -17h-20v288h20v-288zM121 731v-288h-20v288h20z" />
    <glyph glyph-name="Eth" horiz-adv-x="648" 
d="M-10 362v20h64v332h250q126 0 215 -82.5t89 -274.5q0 -179 -96.5 -268t-238.5 -89h-219v362h-64zM74 362v-342h204q135 0 222.5 86t87.5 251q0 183 -82.5 260t-206.5 77h-225v-312h297v-20h-297z" />
    <glyph glyph-name="glyph234" horiz-adv-x="519" 
d="M249 648q-19 15 -42 30.5t-51 29.5l16 14q25 -13 51 -30.5t45 -33.5l123 68l15 -16l-120 -67q108 -99 156.5 -192.5t48.5 -202.5q0 -108 -62 -183.5t-170 -75.5t-169.5 75t-61.5 184q0 108 61.5 183.5t170.5 75.5q51 0 92.5 -17t69.5 -55h4q-26 53 -73.5 109t-87.5 90
l-122 -68l-15 15zM260 9q99 0 155 69.5t56 169.5q0 99 -56.5 169t-154.5 70q-99 0 -155.5 -70t-56.5 -169t56.5 -169t155.5 -70z" />
    <glyph glyph-name="Yacute" horiz-adv-x="538" 
d="M544 714h24l-289 -413v-301h-20v301l-289 413h25l274 -392zM375 931l-146 -144h-15l132 144h29z" />
    <glyph glyph-name="yacute" horiz-adv-x="407" 
d="M398 514h21l-237 -619q-18 -47 -48.5 -59.5t-87.5 -12.5v20q57 0 80 11t40 55l37 96l-215 509h22l204 -487zM310 731l-146 -144h-15l132 144h29z" />
    <glyph glyph-name="Thorn" horiz-adv-x="574" 
d="M74 221h269q86 0 141.5 46.5t55.5 127.5q0 175 -197 175h-269v-349zM343 590q103 0 160 -50t57 -145q0 -92 -62.5 -143t-164.5 -51h-259v-201h-20v714h20v-124h269z" />
    <glyph glyph-name="thorn" horiz-adv-x="537" 
d="M283 506q-100 0 -154 -71t-54 -177q0 -118 57 -184t151 -66q104 0 151.5 73t47.5 177q0 108 -49.5 178t-149.5 70zM75 -177h-20v891h20v-344q22 72 74 114t134 42q104 0 161.5 -74t57.5 -194q0 -116 -55 -193t-164 -77q-77 0 -132.5 42.5t-73.5 113.5z" />
    <glyph glyph-name="minus" horiz-adv-x="600" 
d="M48 243v20h504v-20h-504z" />
    <glyph glyph-name="multiply" horiz-adv-x="600" 
d="M96 443l14 13l189 -191l191 191l14 -13l-191 -190l191 -190l-14 -14l-191 191l-189 -191l-14 14l190 190z" />
    <glyph glyph-name="onesuperior" horiz-adv-x="333" 
d="M181 662q-18 -24 -51.5 -43t-67.5 -29v19q40 13 63.5 28.5t53.5 47.5h22v-408h-20v385z" />
    <glyph glyph-name="twosuperior" horiz-adv-x="333" 
d="M316 297v-20h-298q0 40 23 68.5t110 85.5t110 88.5t23 68.5q0 41 -32 62.5t-84 21.5q-63 0 -92.5 -31t-29.5 -90h-20q0 70 33.5 105.5t108.5 35.5q61 0 98.5 -25.5t37.5 -78.5q0 -44 -26.5 -79.5t-107 -87t-104 -76.5t-25.5 -48h275z" />
    <glyph glyph-name="threesuperior" horiz-adv-x="333" 
d="M24 559q0 64 41 98.5t110 34.5q59 0 99 -22.5t40 -77.5q0 -41 -29 -68t-73 -27q47 -2 78.5 -29.5t31.5 -77.5q0 -54 -44 -87t-105 -33q-77 0 -119.5 37.5t-42.5 107.5h20q0 -61 37 -93t104 -32q54 0 92 26.5t38 73.5q0 51 -36.5 73.5t-92.5 22.5h-24v21h26q51 0 85 20
t34 65q0 46 -33 63t-87 17q-64 0 -97 -28t-33 -85h-20z" />
    <glyph glyph-name="onehalf" horiz-adv-x="834" 
d="M573 714h23l-476 -748h-23zM184 662q-18 -24 -51.5 -43t-67.5 -29v19q40 13 63.5 28.5t53.5 47.5h22v-408h-20v385zM770 20v-20h-298q0 40 23 68.5t110 85.5t110 88.5t23 68.5q0 41 -32 62.5t-84 21.5q-63 0 -92.5 -31t-29.5 -90h-20q0 70 33.5 105.5t108.5 35.5
q61 0 98.5 -25.5t37.5 -78.5q0 -44 -26.5 -79.5t-107 -87t-104 -76.5t-25.5 -48h275z" />
    <glyph glyph-name="onequarter" horiz-adv-x="834" 
d="M620 714h23l-476 -748h-23zM221 662q-18 -24 -51.5 -43t-67.5 -29v19q40 13 63.5 28.5t53.5 47.5h22v-408h-20v385zM635 379h-2l-198 -257h200v257zM414 102v25l216 281h25v-286h76v-20h-76v-102h-20v102h-221z" />
    <glyph glyph-name="threequarters" horiz-adv-x="834" 
d="M674 714h23l-476 -748h-23zM683 379h-2l-198 -257h200v257zM462 102v25l216 281h25v-286h76v-20h-76v-102h-20v102h-221zM68 559q0 64 41 98.5t110 34.5q59 0 99 -22.5t40 -77.5q0 -41 -29 -68t-73 -27q47 -2 78.5 -29.5t31.5 -77.5q0 -54 -44 -87t-105 -33
q-77 0 -119.5 37.5t-42.5 107.5h20q0 -61 37 -93t104 -32q54 0 92 26.5t38 73.5q0 51 -37 74t-92 23l-24 -1v21h26q51 0 85 20t34 65q0 46 -33 63t-87 17q-64 0 -97 -28t-33 -85h-20z" />
  </font>
</defs>
</svg>
